<?xml version="1.0" encoding="UTF-8"?>
<!-- Created with Inkscape (http://www.inkscape.org/) -->
<svg width="100" height="100" viewBox="0 0 26.458 26.458">
 <path d="m22.588 2.4163c0.0349 0.14083 0.10338 0.31076 0.10349 0.45585 1.5e-5 0.99149-0.80375 1.7953-1.7952 1.7952-0.99149 1.51e-5 -1.7953-0.80375-1.7952-1.7952 2.79e-4 -0.14511-0.03263-0.28966 0.0025-0.43046h-1.0267c0.10662 0.19861 0.16237 0.42054 0.16226 0.64596-5.7e-5 0.75344-0.61082 1.3642-1.3643 1.3643-0.75344-5.72e-5 -1.3642-0.61082-1.3643-1.3643 3.72e-4 -0.22555 0.05666-0.44749 0.16381-0.64596h-2.7255c0.03187 0.11688 0.04803 0.23749 0.04806 0.35863 2.28e-4 0.75364-0.61062 1.3647-1.3643 1.3648-0.75364-5.72e-5 -1.3645-0.61114-1.3643-1.3648 3.63e-4 -0.12119 0.01687-0.2418 0.04909-0.35863h-1.8438c0.7657 0.22364 1.292 0.92571 1.2919 1.7234 1.46e-5 0.99149-0.80375 1.7953-1.7952 1.7952-0.99149 1.46e-5 -1.7953-0.80375-1.7952-1.7952 3.16e-4 -0.79856 0.52808-1.5009 1.295-1.7234h-1.9389c0.046183 0.13882 0.069739 0.28416 0.069763 0.43046 2.283e-4 0.75364-0.61062 1.3647-1.3643 1.3648-0.75384 2.282e-4 -1.365-0.61094-1.3648-1.3648 3.578e-4 -0.14636 0.024262-0.2917 0.070797-0.43046h-2.943v1.8841c0.66186 0.10592 1.1488 0.67692 1.1488 1.3472-2.614e-4 0.67009-0.4871 1.2408-1.1488 1.3467v5.6188h6.0317c-0.51558-1.29e-4 -0.93343-0.41821-0.93328-0.93379 1.29e-4 -0.51538 0.4179-0.93315 0.93328-0.93328 0.51558-1.56e-4 0.93366 0.41769 0.93379 0.93328 1.56e-4 0.51578-0.41801 0.93395-0.93379 0.93379h3.8644c-0.038419-0.11586-0.058131-0.23709-0.058394-0.35915-1.922e-4 -0.63481 0.51447-1.1495 1.1493-1.1493 0.63461 9.3e-5 1.149 0.51467 1.1488 1.1493-2.64e-4 0.12206-0.01998 0.2433-0.05839 0.35915h9.1064c-0.75384 2.28e-4 -1.365-0.61094-1.3648-1.3648 5.7e-5 -0.75364 0.61114-1.3645 1.3648-1.3643 0.75344 5.78e-5 1.3642 0.61082 1.3643 1.3643 2.28e-4 0.75364-0.61062 1.3647-1.3643 1.3648h5.5289v-10.197zm-22.588 1.9095v0zm1.3643-1.7048c0.45607 4.7e-6 0.82578 0.36972 0.82579 0.82579-4.7e-6 0.45607-0.36972 0.82578-0.82579 0.82579-0.45607-4.7e-6 -0.82578-0.36972-0.82579-0.82579 4.71e-6 -0.45607 0.36972-0.82578 0.82579-0.82579zm12.782 1.4004c0.99149-1.45e-5 1.7953 0.80375 1.7952 1.7952 1.5e-5 0.99149-0.80375 1.7953-1.7952 1.7952-0.99149 1.45e-5 -1.7953-0.80375-1.7952-1.7952-1.5e-5 -0.99149 0.80375-1.7953 1.7952-1.7952zm-10.628 0.64596c0.99149-1.47e-5 1.7953 0.80375 1.7952 1.7952 1.47e-5 0.99149-0.80375 1.7953-1.7952 1.7952-0.99149 1.46e-5 -1.7953-0.80375-1.7952-1.7952-1.46e-5 -0.99149 0.80375-1.7953 1.7952-1.7952zm15.152 0.108c0.25769 6.48e-5 0.46657 0.20895 0.46664 0.46664-6.5e-5 0.25769-0.20895 0.46657-0.46664 0.46664-0.25769-6.48e-5 -0.46657-0.20895-0.46664-0.46664 6.5e-5 -0.25769 0.20895-0.46657 0.46664-0.46664zm3.0877 0.39481c0.99149-1.45e-5 1.7953 0.80375 1.7952 1.7952 1.5e-5 0.99149-0.80375 1.7953-1.7952 1.7952-0.99149 1.45e-5 -1.7953-0.80375-1.7952-1.7952-1.5e-5 -0.99149 0.80375-1.7953 1.7952-1.7952zm-11.274 0.28732c0.75344 5.72e-5 1.3642 0.61082 1.3643 1.3643-5.7e-5 0.75344-0.61082 1.3642-1.3643 1.3643-0.75343-5.76e-5 -1.3642-0.61082-1.3643-1.3643 5.73e-5 -0.75343 0.61082-1.3642 1.3643-1.3643zm6.75 0.39481c0.45607 4.9e-6 0.82578 0.36972 0.82579 0.82579-5e-6 0.45607-0.36972 0.82578-0.82579 0.82579-0.45607-4.9e-6 -0.82578-0.36972-0.82579-0.82579 5e-6 -0.45607 0.36972-0.82578 0.82579-0.82579zm-10.843 0.35915c0.45607 4.7e-6 0.82578 0.36972 0.82579 0.82579-4.8e-6 0.45607-0.36972 0.82578-0.82579 0.82579-0.45607-4.7e-6 -0.82578-0.36972-0.82579-0.82579 4.7e-6 -0.45607 0.36972-0.82578 0.82579-0.82579zm12.567 0.64596c0.25789 6.47e-5 0.46686 0.20926 0.46664 0.46715-6.5e-5 0.25769-0.20895 0.46657-0.46664 0.46664-0.25769-6.48e-5 -0.46657-0.20895-0.46664-0.46664-2.21e-4 -0.25789 0.20875-0.46709 0.46664-0.46715zm-6.2833 0.82631c0.25769 6.48e-5 0.46657 0.20895 0.46664 0.46664-6.5e-5 0.25769-0.20895 0.46657-0.46664 0.46664-0.25769-6.42e-5 -0.46657-0.20895-0.46664-0.46664 6.5e-5 -0.25769 0.20895-0.46657 0.46664-0.46664zm-11.669 0.14314c0.23805-7.2e-5 0.43105 0.19293 0.43098 0.43098 7.2e-5 0.23805-0.19293 0.43105-0.43098 0.43098-0.23785-2.133e-4 -0.43054-0.19313-0.43046-0.43098-7.212e-5 -0.23785 0.19261-0.43077 0.43046-0.43098zm13.5 0.036174c0.45607 4.4e-6 0.82578 0.36972 0.82579 0.82579-5e-6 0.45607-0.36972 0.82578-0.82579 0.82579-0.45627 2.807e-4 -0.8263-0.36952-0.82631-0.82579 5e-6 -0.45627 0.37004-0.82607 0.82631-0.82579zm3.2313 0.035657c0.99149-1.45e-5 1.7953 0.80375 1.7952 1.7952 1.5e-5 0.99149-0.80375 1.7953-1.7952 1.7952-0.99149 1.5e-5 -1.7953-0.80375-1.7952-1.7952-1.5e-5 -0.99149 0.80375-1.7953 1.7952-1.7952zm-12.495 0.68213c0.45607 4.7e-6 0.82578 0.36972 0.82579 0.82579 2.808e-4 0.45627-0.36952 0.8263-0.82579 0.82631-0.45627-5e-6 -0.82607-0.37004-0.82579-0.82631 4.7e-6 -0.45607 0.36972-0.82578 0.82579-0.82579zm19.101 0.108c0.75344 5.78e-5 1.3642 0.61082 1.3643 1.3643-5.7e-5 0.75344-0.61082 1.3642-1.3643 1.3643-0.75344-5.7e-5 -1.3642-0.61082-1.3643-1.3643 5.7e-5 -0.75344 0.61082-1.3642 1.3643-1.3643zm-15.726 0.07183c0.67406 7.18e-5 1.2205 0.48218 1.2206 1.0769 2.041e-4 0.59496-0.54631 1.0774-1.2206 1.0775-0.67429-7.2e-5 -1.2208-0.4825-1.2206-1.0775 1.194e-4 -0.59476 0.54654-1.0769 1.2206-1.0769zm2.621 0c0.25769 6.48e-5 0.46657 0.20895 0.46664 0.46664-6.5e-5 0.25769-0.20895 0.46657-0.46664 0.46664-0.25769-6.39e-5 -0.46657-0.20895-0.46664-0.46664 6.5e-5 -0.25769 0.20895-0.46657 0.46664-0.46664zm-8.8682 0.07183c0.75343 5.78e-5 1.3642 0.61082 1.3643 1.3643-5.72e-5 0.75344-0.61082 1.3642-1.3643 1.3643-0.75364 2.28e-4 -1.3647-0.61062-1.3648-1.3643 5.76e-5 -0.75364 0.61114-1.3645 1.3648-1.3643zm10.448 0.71779c0.45607 4.9e-6 0.82578 0.36972 0.82579 0.82579-5e-6 0.45607-0.36972 0.82578-0.82579 0.82579-0.45607-5e-6 -0.82578-0.36972-0.82579-0.82579 5e-6 -0.45607 0.36972-0.82578 0.82579-0.82579zm1.9746 1.0413c0.45607 5e-6 0.82578 0.36972 0.82579 0.82579-5e-6 0.45607-0.36972 0.82578-0.82579 0.82579-0.45607-4e-6 -0.82578-0.36972-0.82579-0.82579 4e-6 -0.45607 0.36972-0.82579 0.82579-0.82579z" 
 fill="#fff"/>
</svg>
